<svg width="383" height="261" viewBox="0 0 383 261" fill="none" xmlns="http://www.w3.org/2000/svg">
<g clip-path="url(#clip0_121_731)">
<path opacity="0.1" d="M222.53 46.0293C197.976 45.2223 174.572 37.7258 152.258 29.5257C129.944 21.3256 107.827 12.2384 83.8483 7.89327C68.4314 5.09542 50.8 4.70192 38.3804 12.5185C26.4263 20.0384 22.565 33.0205 20.4881 45.0656C18.9259 54.1294 18.0197 63.6668 22.29 72.1537C25.2627 78.0428 30.538 82.9949 34.1877 88.6373C46.8823 108.269 37.9079 132.479 24.1483 151.664C17.6953 160.668 10.209 169.235 5.22985 178.809C0.250738 188.383 -2.05545 199.351 2.30304 209.115C6.62273 218.785 16.9124 226.062 28.0625 231.174C50.7083 241.548 77.3917 244.516 103.412 246.217C161.01 249.942 218.919 248.328 276.669 246.714C298.042 246.114 319.51 245.51 340.533 242.379C352.209 240.641 364.265 237.887 372.742 231.237C383.501 222.794 386.171 208.501 378.959 197.913C366.864 180.159 333.424 175.747 324.968 156.693C320.317 146.205 325.095 134.52 331.859 124.793C346.362 103.927 370.68 85.6194 371.96 61.766C372.841 45.3824 361.152 28.9788 343.076 21.2256C324.133 13.0921 297.862 14.1192 283.887 27.5616C269.496 41.4107 244.206 46.7396 222.53 46.0293Z" fill="#6C63FF"/>
<path d="M85.4237 241.782C85.4237 241.782 66.0291 227.916 62.3653 210.279C60.8795 202.871 56.8942 196.118 51.0071 191.034C48.1909 188.642 45.1491 186.499 41.9199 184.631" stroke="#535461" stroke-width="2" stroke-miterlimit="10"/>
<path d="M39.5472 173.52C41.2469 175.694 42.0156 184.908 42.0156 184.908C42.0156 184.908 32.9284 181.523 31.2252 179.352C30.4073 178.309 30.0613 177.001 30.2634 175.716C30.4654 174.431 31.1989 173.274 32.3025 172.501C33.406 171.728 34.7893 171.4 36.1479 171.591C37.5066 171.783 38.7293 172.476 39.5472 173.52Z" fill="#6C63FF"/>
<path d="M55.846 180.749C56.0223 183.447 51.3782 191.577 51.3782 191.577C51.3782 191.577 45.6903 184.061 45.5104 181.363C45.4421 180.077 45.9123 178.817 46.8193 177.857C47.7263 176.896 48.997 176.312 50.356 176.231C51.7151 176.151 53.0531 176.58 54.08 177.425C55.1069 178.271 55.7402 179.465 55.8425 180.749H55.846Z" fill="#6C63FF"/>
<path d="M71.6442 201.532C70.3606 203.946 62.0069 208.748 62.0069 208.748C62.0069 208.748 61.1147 199.544 62.3983 197.13C63.0301 195.994 64.1081 195.139 65.4001 194.747C66.6922 194.356 68.0951 194.46 69.3069 195.037C70.5187 195.614 71.4426 196.618 71.8797 197.832C72.3169 199.047 72.2323 200.375 71.6442 201.532Z" fill="#6C63FF"/>
<path d="M79.8563 219.793C79.0206 222.377 71.6472 228.443 71.6472 228.443C71.6472 228.443 69.1188 219.516 69.9545 216.928C70.3562 215.686 71.2631 214.646 72.4756 214.037C73.6881 213.427 75.1069 213.298 76.42 213.678C77.733 214.058 78.8328 214.916 79.4772 216.062C80.1216 217.209 80.258 218.551 79.8563 219.793Z" fill="#6C63FF"/>
<path d="M42.9719 198.113C45.7929 198.474 54.7108 194.665 54.7108 194.665C54.7108 194.665 47.1858 188.769 44.3506 188.409C42.9899 188.236 41.6122 188.582 40.5207 189.369C39.4292 190.157 38.7133 191.323 38.5305 192.609C38.3477 193.896 38.7129 195.199 39.5458 196.231C40.3787 197.264 41.6111 197.941 42.9719 198.113Z" fill="#6C63FF"/>
<path d="M52.8629 219.359C55.6839 218.902 62.9727 212.75 62.9727 212.75C62.9727 212.75 53.9243 209.255 51.1068 209.712C50.4322 209.816 49.7862 210.046 49.2061 210.388C48.626 210.73 48.1232 211.177 47.7268 211.704C47.3304 212.231 47.0482 212.826 46.8966 213.457C46.7449 214.087 46.7268 214.739 46.8432 215.376C46.9596 216.013 47.2083 216.622 47.5749 217.168C47.9414 217.714 48.4187 218.185 48.979 218.555C49.5393 218.926 50.1716 219.187 50.8394 219.325C51.5073 219.463 52.1974 219.475 52.8699 219.359H52.8629Z" fill="#6C63FF"/>
<path d="M65.4692 238.764C68.329 238.764 76.6157 233.865 76.6157 233.865C76.6157 233.865 68.3255 228.973 65.4656 228.973C64.0927 228.973 62.776 229.489 61.8052 230.407C60.8344 231.325 60.2891 232.57 60.2891 233.869C60.2891 235.167 60.8344 236.412 61.8052 237.33C62.776 238.248 64.0927 238.764 65.4656 238.764H65.4692Z" fill="#6C63FF"/>
<path d="M273.834 121.855C273.834 121.855 285.788 101.83 303.807 96.0605C311.374 93.6841 317.922 89.0518 322.468 82.8583C324.601 79.8973 326.441 76.7572 327.966 73.4777" stroke="#535461" stroke-width="2" stroke-miterlimit="10"/>
<path d="M339.277 69.8094C337.225 71.6902 327.672 73.6377 327.672 73.6377C327.672 73.6377 330.017 64.6672 332.069 62.7831C333.06 61.906 334.375 61.4319 335.732 61.4627C337.088 61.4936 338.378 62.027 339.323 62.9481C340.268 63.8692 340.792 65.1043 340.784 66.3876C340.775 67.6709 340.234 68.8996 339.277 69.8094Z" fill="#6C63FF"/>
<path d="M333.875 86.0263C331.054 86.5532 321.932 83.2785 321.932 83.2785C321.932 83.2785 329.055 76.9425 331.858 76.4256C332.531 76.2843 333.227 76.2717 333.906 76.3883C334.584 76.505 335.231 76.7486 335.808 77.1049C336.386 77.4613 336.882 77.9231 337.268 78.4633C337.655 79.0035 337.923 79.6112 338.057 80.2507C338.191 80.8903 338.189 81.5488 338.051 82.1875C337.912 82.8263 337.64 83.4325 337.251 83.9705C336.861 84.5085 336.362 84.9675 335.782 85.3205C335.203 85.6736 334.554 85.9135 333.875 86.0263Z" fill="#6C63FF"/>
<path d="M314.213 103.594C311.512 102.71 305.373 95.5202 305.373 95.5202C305.373 95.5202 314.894 93.4594 317.602 94.3431C318.253 94.5472 318.854 94.8715 319.371 95.2972C319.888 95.7228 320.311 96.2414 320.614 96.8227C320.918 97.4041 321.096 98.0366 321.139 98.6837C321.182 99.3307 321.088 99.9794 320.864 100.592C320.639 101.205 320.288 101.769 319.832 102.252C319.375 102.736 318.821 103.128 318.202 103.407C317.583 103.687 316.912 103.847 316.228 103.879C315.543 103.911 314.858 103.814 314.213 103.594Z" fill="#6C63FF"/>
<path d="M296.144 113.718C293.323 113.278 286.002 107.158 286.002 107.158C286.002 107.158 295.026 103.604 297.843 104.044C299.199 104.255 300.411 104.967 301.212 106.022C302.014 107.078 302.338 108.392 302.115 109.675C301.892 110.957 301.14 112.103 300.023 112.861C298.906 113.618 297.517 113.926 296.161 113.715L296.144 113.718Z" fill="#6C63FF"/>
<path d="M313.967 76.2654C313.963 78.9699 319.15 86.8165 319.15 86.8165C319.15 86.8165 324.331 78.9799 324.331 76.2788C324.349 75.6254 324.228 74.9752 323.976 74.3665C323.724 73.7579 323.346 73.2031 322.864 72.7349C322.381 72.2667 321.805 71.8946 321.168 71.6406C320.531 71.3865 319.847 71.2556 319.156 71.2556C318.465 71.2556 317.78 71.3865 317.144 71.6406C316.507 71.8946 315.93 72.2667 315.448 72.7349C314.966 73.2031 314.587 73.7579 314.335 74.3665C314.083 74.9752 313.963 75.6254 313.981 76.2788L313.967 76.2654Z" fill="#6C63FF"/>
<path d="M293.01 88.3572C293.863 90.9383 301.282 96.9575 301.282 96.9575C301.282 96.9575 303.751 88.0137 302.89 85.4326C302.444 84.2368 301.525 83.2513 300.325 82.6838C299.126 82.1162 297.741 82.0109 296.461 82.3899C295.182 82.769 294.108 83.6028 293.465 84.7158C292.822 85.8289 292.662 87.1343 293.017 88.3572H293.01Z" fill="#6C63FF"/>
<path d="M274.365 102.753C274.746 105.421 280.98 112.547 280.98 112.547C280.98 112.547 285.004 104.127 284.623 101.449C284.547 100.801 284.335 100.173 283.999 99.6024C283.663 99.0322 283.21 98.5313 282.667 98.1292C282.123 97.7271 281.5 97.4318 280.834 97.2608C280.167 97.0898 279.472 97.0465 278.788 97.1335C278.104 97.2204 277.445 97.4359 276.85 97.7671C276.255 98.0984 275.737 98.5388 275.325 99.0624C274.913 99.586 274.615 100.182 274.451 100.816C274.286 101.45 274.257 102.109 274.365 102.753Z" fill="#6C63FF"/>
<path opacity="0.25" d="M339.277 69.8094C337.225 71.6902 327.672 73.6377 327.672 73.6377C327.672 73.6377 330.017 64.6672 332.069 62.7831C333.06 61.906 334.375 61.4319 335.732 61.4627C337.088 61.4936 338.378 62.027 339.323 62.9481C340.268 63.8692 340.792 65.1043 340.784 66.3876C340.775 67.6709 340.234 68.8996 339.277 69.8094Z" fill="black"/>
<path opacity="0.25" d="M333.875 86.0263C331.054 86.5532 321.932 83.2785 321.932 83.2785C321.932 83.2785 329.055 76.9425 331.858 76.4256C332.531 76.2843 333.227 76.2717 333.906 76.3883C334.584 76.505 335.231 76.7486 335.808 77.1049C336.386 77.4613 336.882 77.9231 337.268 78.4633C337.655 79.0035 337.923 79.6112 338.057 80.2507C338.191 80.8903 338.189 81.5488 338.051 82.1875C337.912 82.8263 337.64 83.4325 337.251 83.9705C336.861 84.5085 336.362 84.9675 335.782 85.3205C335.203 85.6736 334.554 85.9135 333.875 86.0263Z" fill="black"/>
<path opacity="0.25" d="M314.213 103.594C311.512 102.71 305.373 95.5202 305.373 95.5202C305.373 95.5202 314.894 93.4594 317.602 94.3431C318.253 94.5472 318.854 94.8715 319.371 95.2972C319.888 95.7228 320.311 96.2414 320.614 96.8227C320.918 97.4041 321.096 98.0366 321.139 98.6837C321.182 99.3307 321.088 99.9794 320.864 100.592C320.639 101.205 320.288 101.769 319.832 102.252C319.375 102.736 318.821 103.128 318.202 103.407C317.583 103.687 316.912 103.847 316.228 103.879C315.543 103.911 314.858 103.814 314.213 103.594Z" fill="black"/>
<path opacity="0.25" d="M296.144 113.718C293.323 113.278 286.002 107.158 286.002 107.158C286.002 107.158 295.026 103.604 297.843 104.044C299.199 104.255 300.411 104.967 301.212 106.022C302.014 107.078 302.338 108.392 302.115 109.675C301.892 110.957 301.14 112.103 300.023 112.861C298.906 113.618 297.517 113.926 296.161 113.715L296.144 113.718Z" fill="black"/>
<path opacity="0.25" d="M313.967 76.2654C313.963 78.9699 319.15 86.8165 319.15 86.8165C319.15 86.8165 324.331 78.9799 324.331 76.2788C324.349 75.6254 324.228 74.9752 323.976 74.3665C323.724 73.7579 323.346 73.2031 322.864 72.7349C322.381 72.2667 321.805 71.8946 321.168 71.6406C320.531 71.3865 319.847 71.2556 319.156 71.2556C318.465 71.2556 317.78 71.3865 317.144 71.6406C316.507 71.8946 315.93 72.2667 315.448 72.7349C314.966 73.2031 314.587 73.7579 314.335 74.3665C314.083 74.9752 313.963 75.6254 313.981 76.2788L313.967 76.2654Z" fill="black"/>
<path opacity="0.25" d="M293.01 88.3572C293.863 90.9383 301.282 96.9575 301.282 96.9575C301.282 96.9575 303.751 88.0137 302.89 85.4326C302.444 84.2368 301.525 83.2513 300.325 82.6838C299.126 82.1162 297.741 82.0109 296.461 82.3899C295.182 82.769 294.108 83.6028 293.465 84.7158C292.822 85.8289 292.662 87.1343 293.017 88.3572H293.01Z" fill="black"/>
<path opacity="0.25" d="M274.365 102.753C274.746 105.421 280.98 112.547 280.98 112.547C280.98 112.547 285.004 104.127 284.623 101.449C284.547 100.801 284.335 100.173 283.999 99.6024C283.663 99.0322 283.21 98.5313 282.667 98.1292C282.123 97.7271 281.5 97.4318 280.834 97.2608C280.167 97.0898 279.472 97.0465 278.788 97.1335C278.104 97.2204 277.445 97.4359 276.85 97.7671C276.255 98.0984 275.737 98.5388 275.325 99.0624C274.913 99.586 274.615 100.182 274.451 100.816C274.286 101.45 274.257 102.109 274.365 102.753Z" fill="black"/>
<path d="M274.521 121.458C274.521 121.458 276.87 98.5682 290.855 86.3964C296.754 81.3236 300.755 74.5795 302.259 67.1749C302.944 63.6549 303.285 60.0828 303.278 56.5038" stroke="#535461" stroke-width="2" stroke-miterlimit="10"/>
<path d="M312.045 48.7805C310.987 51.2882 303.074 56.7305 303.074 56.7305C303.074 56.7305 301.374 47.63 302.443 45.1223C302.957 43.9182 303.956 42.9566 305.22 42.4491C306.484 41.9416 307.91 41.9297 309.183 42.4162C310.456 42.9026 311.473 43.8475 312.01 45.0429C312.546 46.2383 312.559 47.5864 312.045 48.7905V48.7805Z" fill="#6C63FF"/>
<path d="M314.058 65.6944C311.72 67.2484 301.963 67.7586 301.963 67.7586C301.963 67.7586 305.764 59.2417 308.102 57.6877C308.657 57.2952 309.289 57.012 309.961 56.8548C310.633 56.6975 311.332 56.6694 312.016 56.7722C312.7 56.8749 313.355 57.1064 313.943 57.4529C314.531 57.7994 315.039 58.254 315.437 58.7896C315.836 59.3251 316.117 59.9309 316.263 60.571C316.41 61.2111 316.419 61.8725 316.29 62.516C316.162 63.1596 315.898 63.7722 315.515 64.3175C315.131 64.8629 314.636 65.3299 314.058 65.691V65.6944Z" fill="#6C63FF"/>
<path d="M303.598 89.2977C300.749 89.5245 292.053 85.296 292.053 85.296C292.053 85.296 299.881 79.7603 302.73 79.5336C304.099 79.4248 305.456 79.8345 306.505 80.6725C307.554 81.5105 308.208 82.7082 308.323 84.0021C308.438 85.296 308.005 86.5802 307.119 87.572C306.233 88.5639 304.966 89.1822 303.598 89.291V89.2977Z" fill="#6C63FF"/>
<path d="M291.43 105.468C288.661 106.135 279.338 103.377 279.338 103.377C279.338 103.377 286.063 96.6708 288.831 95.9905C290.16 95.6646 291.571 95.8513 292.754 96.5095C293.938 97.1677 294.796 98.2435 295.141 99.5003C295.486 100.757 295.288 102.092 294.592 103.211C293.896 104.33 292.758 105.142 291.43 105.468Z" fill="#6C63FF"/>
<path d="M291.676 64.4005C292.832 66.8716 300.922 72.0704 300.922 72.0704C300.922 72.0704 302.297 62.9199 301.14 60.4489C300.564 59.2928 299.532 58.3957 298.266 57.9493C296.999 57.5029 295.599 57.5426 294.363 58.0599C293.127 58.5772 292.154 59.5311 291.652 60.7178C291.15 61.9045 291.158 63.2298 291.676 64.4105V64.4005Z" fill="#6C63FF"/>
<path d="M277.698 83.4818C279.585 85.5126 288.944 88.1738 288.944 88.1738C288.944 88.1738 287.364 79.0533 285.477 77.0224C285.032 76.529 284.487 76.1243 283.875 75.8317C283.263 75.539 282.596 75.3644 281.911 75.3178C281.227 75.2712 280.54 75.3537 279.89 75.5604C279.24 75.7672 278.64 76.094 278.124 76.522C277.609 76.95 277.189 77.4705 276.888 78.0535C276.587 78.6364 276.412 79.27 276.372 79.9176C276.332 80.5652 276.429 81.2137 276.657 81.8256C276.884 82.4374 277.238 83.0004 277.698 83.4818Z" fill="#6C63FF"/>
<path d="M266.805 103.797C268.3 106.098 277.049 110.216 277.049 110.216C277.049 110.216 277.123 100.976 275.638 98.6715C274.899 97.6076 273.751 96.8577 272.437 96.5809C271.123 96.3041 269.747 96.5222 268.6 97.1889C267.453 97.8556 266.627 98.9184 266.295 100.152C265.963 101.386 266.152 102.693 266.822 103.797H266.805Z" fill="#6C63FF"/>
<path d="M256.537 31.8168C257.122 29.7859 257.828 27.745 258.321 25.6875C257.729 27.745 257.02 29.7926 256.537 31.8168Z" fill="url(#paint0_linear_121_731)"/>
<path d="M253.913 51.3783C253.864 51.2983 253.828 51.2182 253.79 51.1449C253.79 51.1115 253.754 51.0848 253.74 51.0515C253.663 51.0858 253.585 51.1158 253.504 51.1415C253.349 51.1982 253.19 51.2516 253.028 51.2949C252.866 51.3383 252.799 51.3616 252.675 51.3883C252.573 51.4216 252.468 51.4473 252.361 51.465L252.39 51.525C252.52 51.4983 252.647 51.475 252.778 51.4416L252.813 51.8552C252.961 51.8552 253.098 51.8352 253.232 51.8352C253.296 51.8318 253.359 51.8318 253.423 51.8352C253.698 51.8352 253.938 51.8352 254.128 51.8352C254.054 51.6851 253.977 51.5284 253.913 51.3783ZM325.497 159.134C323.839 157.023 320.532 134.367 320.532 134.367C320.532 134.367 314.026 118.256 315.799 111.827C317.573 105.398 310.954 88.9475 310.954 88.9475C310.954 88.9475 306.582 87.15 306.345 84.4822C306.345 84.4822 288.492 79.1467 287.656 75.145C286.979 71.8636 275.906 69.5093 271.929 68.7656C270.716 64.137 269.496 59.8185 268.596 57.4609C268.353 56.7272 268.124 56.0936 267.912 55.5934C266.393 51.9252 261.696 51.5917 258.289 51.8852C258.142 51.26 257.867 50.6677 257.482 50.1411C257.425 49.9601 257.314 49.7988 257.161 49.6776C257.088 49.6187 257.01 49.5651 256.928 49.5175C256.866 49.4094 256.785 49.3124 256.688 49.2307C256.591 49.1483 256.485 49.0767 256.371 49.0173C256.289 48.9754 256.204 48.9386 256.117 48.9072C255.913 48.8337 255.701 48.7789 255.486 48.7438C255.235 48.695 254.98 48.6638 254.724 48.6505C255.346 48.393 255.901 48.0093 256.35 47.5267C256.655 47.1878 256.882 46.7926 257.016 46.3662C257.128 46.0116 257.178 45.6422 257.164 45.2724C257.073 45.4248 256.967 45.5688 256.847 45.7026C256.995 44.2253 256.17 42.7246 255.697 41.254C255.125 39.3395 255.019 37.3271 255.387 35.3682C255.86 32.4136 257.03 29.4257 257.824 26.4178C257.826 26.4011 257.826 26.3844 257.824 26.3677C258.24 24.8739 258.497 23.3446 258.592 21.8025C258.73 18.6912 257.887 15.5865 256.533 12.752C255.331 10.2409 253.557 7.76991 250.842 6.74948C248.825 5.97915 246.564 6.10254 244.392 5.97582C239.519 5.68903 234.871 4.06835 230.238 2.59439C225.604 1.12044 220.837 -0.220129 215.96 0.0366461C211.083 0.293421 206.065 2.51769 203.84 6.59941C203.135 7.87328 202.729 9.29055 201.886 10.4877C200.307 12.7453 197.478 13.8758 195.119 15.4331C192.76 16.9905 190.683 19.2014 189.83 21.8392C189.364 23.2603 189.298 24.7719 189.639 26.2244C189.716 26.5524 189.815 26.8754 189.936 27.1914C190.27 28.0725 190.792 28.8795 191.47 29.5624C191.98 30.0672 192.567 30.4976 193.212 30.8396C194.021 31.2637 194.886 31.5823 195.786 31.7867C195.754 31.8867 195.722 31.9935 195.687 32.0968C195.631 32.2669 195.581 32.4303 195.528 32.6137C195.412 33.0239 195.303 33.4407 195.211 33.8609C195.207 33.8908 195.207 33.921 195.211 33.9509C194.778 35.8477 194.56 37.7829 194.562 39.7234C194.561 40.6411 194.611 41.5583 194.71 42.4712C196.121 56.0036 207.934 66.6781 222.529 67.3717C223.03 67.395 223.534 67.4084 224.045 67.4084C224.278 67.4084 224.507 67.4084 224.751 67.4084C224.98 67.6952 225.206 67.9886 225.421 68.2754C225.636 68.5622 225.833 68.8557 226.02 69.1424L225.509 68.6422L224.998 68.1987C224.859 68.3786 224.704 68.5471 224.536 68.7023C224.202 68.5913 223.862 68.5 223.516 68.4288C222.053 68.122 219.824 68.0086 216.891 68.8456C214.193 69.6093 210.896 71.18 207.038 74.1646L188.24 84.8357L178.07 90.6849L174.406 99.1551C174.406 99.1551 171.652 109.219 168.588 120.751C168.468 120.784 168.351 120.818 168.235 120.858C167.987 120.831 167.737 120.817 167.487 120.818C165.709 120.814 163.999 121.461 162.716 122.625C161.432 123.788 160.675 125.377 160.604 127.057C154.511 134.06 154.165 141.063 155.597 144.277C155.726 144.579 155.89 144.866 156.083 145.134C157.021 146.415 158.774 149.716 160.551 153.235C160.505 153.525 160.477 153.768 160.463 153.952C160.46 154.012 160.46 154.072 160.463 154.132C160.463 154.132 161.521 169.241 157.995 173.573C157.222 174.517 157.339 175.757 157.995 177.131C160.357 182.073 169.698 188.673 169.698 188.673C169.698 188.673 180.901 188.616 187.143 187.973C187.125 188.566 187.111 189.156 187.097 189.733C186.956 195.562 186.956 200.448 186.956 200.448L186.723 206.56C186.723 206.56 184.608 219.442 183.55 222.994C182.883 225.222 183.652 245.847 184.322 261.01H294.702C295.999 252.04 294.169 224.785 294.169 224.785C294.169 224.785 292.431 217.738 292.367 211.596C292.364 211.589 292.362 211.582 292.362 211.574C292.362 211.567 292.364 211.559 292.367 211.552C292.367 211.016 292.367 210.492 292.388 209.978L293.189 209.952L294.627 209.905H294.758C294.758 209.905 294.793 209.778 294.874 209.572C295.065 209.057 295.324 208.567 295.647 208.114C296.26 207.257 297.219 206.417 298.662 206.36C299.458 206.33 300.693 205.72 302.086 204.82C302.095 204.822 302.104 204.822 302.114 204.82C305.862 202.422 310.817 197.997 312.019 197.27C313.673 196.269 321.593 189.6 321.593 189.6C321.593 189.6 322.774 188.186 324.033 186.482L324.079 186.422C325.645 184.288 327.309 181.737 326.9 180.933C326.195 179.492 327.373 176.048 327.373 176.048C331.05 169.681 327.154 161.245 325.497 159.134ZM257.309 56.5638C257.343 56.6634 257.364 56.7663 257.372 56.8706C257.284 56.7606 257.196 56.6438 257.108 56.5371L257.023 56.4304L256.963 56.3504L257.097 56.177C257.097 56.177 257.097 56.177 257.097 56.2003C257.19 56.3084 257.262 56.4316 257.309 56.5638ZM256.124 53.6092C255.74 53.6826 255.436 53.7493 255.239 53.7993C254.989 53.3791 254.749 52.959 254.534 52.5321C255.099 52.8423 255.632 53.203 256.124 53.6092ZM255.461 54.1361C255.46 54.1295 255.46 54.1227 255.461 54.1161L255.489 54.1361C255.634 54.2262 255.775 54.3129 255.905 54.4029C256.022 54.4829 256.128 54.5596 256.233 54.6397C256.163 54.7564 256.085 54.8764 256.008 54.9731C255.884 54.7897 255.768 54.613 255.655 54.4296C255.584 54.3562 255.521 54.2562 255.461 54.1361ZM253.345 50.021C254.027 49.9575 254.713 49.9575 255.394 50.021C255.489 50.021 255.574 50.0377 255.659 50.0511C255.85 50.079 256.038 50.1248 256.219 50.1878C256.636 50.7391 256.893 51.3842 256.963 52.0586L256.773 52.0853L256.586 52.1186C256.233 52.1753 255.881 52.232 255.606 52.2853L255.253 52.3554C254.784 52.4521 254.512 52.5254 254.502 52.5288C254.456 52.4387 254.41 52.3554 254.361 52.2687C254.283 52.1253 254.202 51.9785 254.132 51.8352C254.061 51.6918 253.969 51.5284 253.895 51.3783C253.846 51.2983 253.811 51.2182 253.772 51.1449C253.772 51.1115 253.737 51.0848 253.723 51.0515C253.702 51.0161 253.684 50.9793 253.67 50.9414C253.455 50.5279 253.257 50.1144 253.067 49.7076C253.046 49.6676 253.028 49.6242 253.01 49.5842L253.278 49.5675V49.6542L253.345 50.021ZM169.212 256.888C169.184 251.923 168.803 246.551 167.745 241.508C167.293 239.364 166.828 237.22 166.355 235.112C166.236 234.586 166.119 234.065 166.003 233.545L164.917 233.682H164.818C161.856 220.473 158.76 208.835 158.76 208.835C158.76 208.835 152.61 186.629 153.322 184.858C153.414 184.628 153.298 184.008 153.037 183.097C151.549 178.048 145.335 164.136 143.163 159.38C143.163 159.36 143.145 159.337 143.138 159.32C142.786 158.523 142.532 157.987 142.454 157.83L142.966 150.734L142.994 150.307L143.061 149.4L143.033 149.376L143.061 148.956C143.061 148.956 137.694 144.794 128.603 141.79C128.25 141.67 127.877 141.553 127.506 141.44C127.961 138.568 128.564 135.327 129.351 132.169C129.425 131.852 129.506 131.545 129.59 131.235C129.665 130.925 129.749 130.625 129.834 130.322C129.968 129.828 130.112 129.341 130.26 128.861C130.751 128.714 131.234 128.551 131.71 128.377L131.893 128.311C137.758 126.153 142.597 122.058 145.514 116.785C148.432 111.513 149.23 105.419 147.761 99.632C146.924 96.3501 145.378 93.2675 143.22 90.5781C143.057 90.3714 142.885 90.1646 142.712 89.9612C142.539 89.7578 142.331 89.531 142.137 89.3243C143.156 87.1334 144.359 85.0491 144.457 82.9183C144.475 82.6484 144.475 82.3778 144.457 82.1079V82.0746C144.327 80.704 143.685 79.3167 142.19 77.8595C140.007 75.7219 136.9 74.6381 133.794 74.1179C130.687 73.5977 127.521 73.5843 124.396 73.2342C119.216 72.6472 114.17 71.1366 108.99 70.6731C102.609 70.1143 96.1856 71.1492 90.3606 73.6744C86.5064 75.3417 82.6028 78.2563 82.37 82.2546C82.1796 85.5594 84.6127 88.7274 83.9992 91.9921C83.3891 95.2001 79.9334 97.7245 80.2366 100.969C80.353 102.236 81.0406 103.37 81.901 104.381C82.1972 104.714 82.5111 105.048 82.8355 105.381C84.0909 106.638 85.4732 107.845 86.1749 109.429C86.2031 109.496 86.2313 109.563 86.256 109.63C86.8519 111.194 86.5839 113.171 85.1099 114.068C85.1181 114.074 85.1242 114.082 85.1276 114.091C85.1487 114.118 85.1699 114.138 85.1875 114.165C85.1897 114.159 85.1897 114.153 85.1875 114.148C85.7101 114.734 86.4146 115.149 87.201 115.335L87.5008 115.422C87.2574 115.672 87.0282 115.932 86.7955 116.206L86.6439 116.396C86.2553 116.89 85.9019 117.408 85.586 117.946C85.4062 118.246 85.2334 118.547 85.0888 118.847C84.6054 119.762 84.2555 120.734 84.0485 121.738C83.6712 123.946 84.2037 126.247 83.6324 128.407C82.9272 131.075 80.695 133.123 79.4362 135.6C77.0524 140.269 78.403 145.748 78.8825 150.904C79.5349 157.907 78.477 164.939 77.4227 171.896C76.8632 175.595 76.3036 179.298 75.7441 183.004C74.3336 192.305 72.9231 201.607 71.5126 210.909C70.9978 214.317 70.3877 217.912 67.9863 220.543H68.011C68.011 220.543 68.011 220.563 67.9863 220.57C68.7072 220.868 69.4739 221.054 70.2572 221.123C73.3921 221.42 76.7139 219.986 79.5349 218.419C81.769 217.198 83.8847 215.793 85.8575 214.22C85.5684 215.221 85.2581 216.311 84.9266 217.485C84.9277 217.496 84.9277 217.507 84.9266 217.518C80.9454 231.858 74.5417 258.145 74.5417 258.145C74.5417 258.145 73.9598 259.289 73.2052 260.993H172.646C171.483 259.659 170.4 258.382 169.554 257.352L169.212 256.888ZM95.583 124.299C95.6077 124.259 95.6253 124.222 95.65 124.186C95.65 124.292 95.65 124.396 95.65 124.496C95.65 124.596 95.65 124.686 95.65 124.779C95.65 124.873 95.65 124.863 95.65 124.909C95.65 125.046 95.6183 125.183 95.5936 125.319C95.5936 125.319 95.5936 125.336 95.5936 125.349L95.9462 125.473L96.3553 125.633C98.7719 126.536 101.219 127.353 103.697 128.084C103.951 128.161 104.208 128.234 104.466 128.304L104.519 128.718C104.582 129.141 104.642 129.571 104.698 130.001C104.698 130.001 104.698 130.021 104.698 130.035C104.857 131.225 105.012 132.412 105.15 133.573C105.15 133.573 98.6756 131.239 98.7567 134.783C98.753 134.847 98.753 134.91 98.7567 134.974C98.7495 135.058 98.7495 135.143 98.7567 135.227C98.8166 137.988 99.7299 139.625 99.9133 140.466C99.9023 140.501 99.883 140.533 99.8569 140.559C99.7004 140.881 99.6465 141.239 99.7017 141.59C99.6955 142.186 99.7451 142.782 99.8498 143.37C99.6594 143.48 99.4725 143.59 99.2856 143.704C99.1445 143.787 99.0105 143.881 98.873 143.974C98.008 141.136 96.8762 138.377 95.4913 135.73C94.5216 133.843 93.432 131.876 93.4425 129.805C93.4425 129.671 93.4426 129.535 93.4602 129.398C93.4995 128.798 93.6204 128.205 93.8199 127.634C93.901 127.417 93.9891 127.204 94.0879 126.993C94.3183 126.494 94.5761 126.007 94.8601 125.533C95.0435 125.219 95.2374 124.909 95.4243 124.596C95.4843 124.502 95.5407 124.406 95.5971 124.312L95.583 124.299ZM253.913 51.3783C253.864 51.2983 253.828 51.2182 253.79 51.1449C253.79 51.1115 253.754 51.0848 253.74 51.0515C253.663 51.0858 253.585 51.1158 253.504 51.1415C253.349 51.1982 253.19 51.2516 253.028 51.2949C252.866 51.3383 252.799 51.3616 252.675 51.3883L252.361 51.465L252.39 51.525C252.52 51.4983 252.647 51.475 252.778 51.4416L252.813 51.8552C252.961 51.8552 253.098 51.8352 253.232 51.8352H253.423C253.698 51.8352 253.938 51.8352 254.128 51.8352C254.054 51.6851 253.977 51.5284 253.913 51.3783Z" fill="url(#paint1_linear_121_731)"/>
<path d="M176.864 100.359L174.748 101.243C174.748 101.243 160.957 151.911 160.957 156.006C160.957 160.101 190.2 182.887 190.2 182.887L194.763 153.761C194.763 153.761 188.212 86.97 176.864 100.359Z" fill="#E8F5FF"/>
<path d="M241.01 84.2422L228.792 78.2129C228.107 75.4539 226.893 72.8372 225.209 70.493C223.421 68.052 221.044 65.6543 218.082 64.4038C210.596 61.2291 249.748 44.5654 249.748 44.5654C250.365 46.5672 251.091 48.5374 251.924 50.4679C253.941 55.1766 257.287 61.2658 261.6 62.9999C268.931 65.9511 241.01 84.2422 241.01 84.2422Z" fill="#563438"/>
<path opacity="0.1" d="M251.924 50.4679C250.251 56.0319 246.772 60.9583 241.979 64.5515C237.185 68.1447 231.319 70.223 225.209 70.493C223.421 68.052 221.044 65.6543 218.082 64.4038C210.596 61.2291 249.748 44.5654 249.748 44.5654C250.365 46.5672 251.091 48.5374 251.924 50.4679Z" fill="black"/>
<path d="M253.026 42.0543C253.027 47.5112 251.317 52.8459 248.112 57.3837C244.907 61.9216 240.351 65.4587 235.021 67.5477C229.69 69.6367 223.824 70.1838 218.164 69.1198C212.505 68.0557 207.306 65.4284 203.225 61.5701C199.145 57.7117 196.366 52.7956 195.24 47.4436C194.115 42.0916 194.692 36.5441 196.901 31.5026C199.109 26.4612 202.849 22.1523 207.647 19.121C212.445 16.0897 218.086 14.472 223.856 14.4727C227.691 14.4559 231.492 15.1579 235.039 16.538C238.586 17.9181 241.808 19.9491 244.52 22.5136C247.232 25.0781 249.38 28.1253 250.84 31.4792C252.3 34.8332 253.043 38.4274 253.026 42.0543Z" fill="#563438"/>
<path d="M257.235 80.7006L249.28 98.2547L242.262 109.906H219.8L213.248 93.9762L215.903 77.4559H233.059L244.135 76.8657L247.876 75.6852L250.288 76.9791L257.235 80.7006Z" fill="#575A89"/>
<path opacity="0.1" d="M254.496 57.3008C254.496 57.3008 259.457 58.3012 255.014 61.746C250.571 65.1908 235.242 76.1454 235.242 76.1454C235.242 76.1454 240.627 80.6807 239.513 85.9929L257.352 76.5889L260.526 61.5426C260.526 61.5426 260.882 57.0207 254.496 57.3008Z" fill="black"/>
<path opacity="0.1" d="M238.75 76.1454L227.403 77.9161C227.403 77.9161 229.744 86.1029 228.574 88.4272C228.538 88.4995 228.509 88.5742 228.485 88.6507L223.855 100.486L227.325 109.78L239.336 94.2897L235.242 88.4272C235.242 88.4272 239.569 83.0049 242.143 81.1241C244.717 79.2434 238.75 76.1454 238.75 76.1454Z" fill="black"/>
<path d="M238.75 75.6886L227.403 77.456C227.403 77.456 229.744 85.6428 228.574 87.9671C228.538 88.0394 228.509 88.114 228.485 88.1905L223.855 100.026L227.325 109.319L239.336 93.8196L235.242 87.9571C235.242 87.9571 239.569 82.5348 242.143 80.654C244.717 78.7732 238.75 75.6886 238.75 75.6886Z" fill="#DCE6F2"/>
<path d="M254.972 56.4172C254.972 56.4172 259.933 57.4176 255.487 60.8624C251.04 64.3072 235.242 76.1455 235.242 76.1455C235.242 76.1455 241.092 79.797 239.982 85.1059L257.821 75.7053L260.995 60.6589C260.995 60.6589 261.347 56.137 254.972 56.4172Z" fill="#575A89"/>
<path opacity="0.1" d="M225.99 71.5369C225.99 71.5369 227.072 73.451 231.85 76.9025C231.85 76.9025 223.895 80.9042 226.938 86.5299L214.769 83.5286L212.896 77.9963L225.99 71.5369Z" fill="black"/>
<path d="M225.519 71.0967C225.519 71.0967 226.602 73.0108 231.38 76.4623C231.38 76.4623 223.425 80.444 226.468 86.0863L214.302 83.0851L212.43 77.5561L225.519 71.0967Z" fill="#575A89"/>
<path opacity="0.1" d="M257.235 80.7007L249.28 98.2548L242.276 109.906H219.8L213.248 93.9763L215.9 77.456H220.671C220.593 81.3109 222.081 85.8395 221.986 87.5236C221.824 90.2914 226.352 105.224 226.352 105.224C226.352 105.224 235.827 90.7316 239.568 89.441C241.92 88.6307 246.903 81.8879 250.285 76.9791L257.235 80.7007Z" fill="black"/>
<path d="M288.574 173.076L287.766 174.037C287.766 174.037 293.616 201.805 291.998 208.111C291.722 209.248 291.565 210.407 291.529 211.573V211.623C291.243 218.039 293.292 226.365 293.292 226.365C293.292 226.365 294.928 250.909 293.997 261.003H184.464C183.822 246.077 183.131 226.739 183.758 224.595C184.816 221.057 186.932 208.221 186.932 208.221L187.165 202.139C187.165 202.139 187.165 196.259 187.355 189.71C187.436 186.765 187.556 183.674 187.729 180.933C187.951 177.485 188.261 174.58 188.688 173.153C188.951 172.071 189.102 170.968 189.14 169.858C189.14 169.755 189.14 169.648 189.161 169.542C189.161 169.208 189.196 168.848 189.21 168.478C189.21 168.374 189.21 168.271 189.21 168.144C189.277 165.997 189.252 163.449 189.178 160.808C189.178 160.664 189.178 160.518 189.178 160.371C189.118 158.39 189.03 156.369 188.931 154.448C188.625 148.446 188.226 143.37 188.226 143.37L174.773 101.219L178.398 92.7758L188.459 86.9467L207.06 76.3256C216.133 69.2726 222.107 70.1196 224.385 70.8933C224.606 70.9647 224.823 71.0482 225.034 71.1434C225.104 71.1767 225.16 71.2034 225.213 71.2334C225.286 71.2659 225.355 71.3038 225.421 71.3468C224.798 71.6306 224.256 72.0527 223.842 72.5773C223.375 73.1743 223.043 73.8552 222.865 74.5781C222.746 75.0263 222.662 75.4822 222.614 75.9421C222.569 76.4256 222.551 76.9258 222.551 77.4294C222.576 78.5336 222.676 79.6353 222.851 80.7274C222.851 80.7474 222.851 80.7741 222.851 80.8008C222.967 81.5811 223.112 82.3448 223.253 83.0617C223.251 83.0739 223.251 83.0862 223.253 83.0984C223.415 83.9354 223.577 84.7091 223.686 85.376C223.708 85.4961 223.725 85.6061 223.743 85.7095C223.821 86.1502 223.857 86.5966 223.852 87.0434C223.892 88.1223 224.045 89.1947 224.311 90.2448C224.402 90.6849 224.508 91.1551 224.624 91.6453C224.783 92.3123 224.956 93.0393 225.143 93.7796C225.245 94.1864 225.354 94.6066 225.467 95.0234C225.51 95.1902 225.555 95.3569 225.598 95.527L225.668 95.7904C226.419 98.615 227.234 101.426 227.735 103.127C228.031 104.127 228.218 104.744 228.218 104.744C228.218 104.744 233.528 96.6241 237.767 92.0022C237.83 91.9355 237.887 91.8721 237.947 91.8121C238.366 91.3552 238.779 90.9384 239.174 90.5716C240.038 89.7579 240.814 89.1776 241.438 88.9642C241.571 88.9181 241.699 88.8612 241.822 88.7941C243.557 87.8637 246.357 84.4857 248.977 80.9475C249.234 80.614 249.485 80.2505 249.739 79.9071C250.32 79.1134 250.885 78.3164 251.417 77.5527C251.826 76.9692 252.218 76.4023 252.588 75.862C254.351 73.2676 255.592 71.3335 255.592 71.3335L258.04 71.2301L258.466 71.2101H258.752L269.863 70.7232C269.863 70.7232 270.343 70.7999 271.133 70.95C271.175 70.95 271.217 70.95 271.263 70.9766C275.205 71.7169 286.158 74.0613 286.828 77.3126C287.646 81.2943 305.313 86.6066 305.313 86.6066C305.546 89.2743 309.872 91.0318 309.872 91.0318C309.872 91.0318 316.424 107.405 314.672 113.821C312.94 120.157 319.178 135.831 319.344 136.271L318.148 137.698L288.574 173.076Z" fill="#E8F5FF"/>
<path opacity="0.1" d="M254.492 56.137C254.492 56.137 265.307 53.2358 267.765 59.2083C270.222 65.1808 275.72 89.301 275.72 89.301C275.72 89.301 261.446 91.8454 257.704 89.301C255.51 87.7909 252.793 87.1193 250.098 87.4202L242.026 92.619L239.643 91.9521C239.643 91.9521 252.556 73.7978 255.363 67.6285C258.17 61.4592 259.118 58.7014 254.492 56.137Z" fill="black"/>
<path d="M254.023 54.8031C254.023 54.8031 264.845 51.9019 267.313 57.8744C269.782 63.847 275.268 87.9671 275.268 87.9671C275.268 87.9671 260.998 90.5115 257.253 87.9671C255.059 86.457 252.344 85.7853 249.65 86.0863L241.571 91.2852L239.188 90.6182C239.188 90.6182 252.101 72.4639 254.908 66.2946C257.715 60.1254 258.649 57.3742 254.023 54.8031Z" fill="#E8F5FF"/>
<path opacity="0.1" d="M181.427 151.027C181.427 151.027 189.499 152.908 191.022 157.223C192.545 161.538 185.055 161.648 185.055 161.648C185.055 161.648 180.492 154.015 181.427 151.027Z" fill="black"/>
<path opacity="0.1" d="M211.493 182.887C211.493 182.887 191.724 221.167 196.287 224.818C200.85 228.47 211.493 182.887 211.493 182.887Z" fill="black"/>
<path opacity="0.1" d="M238.75 154.678C238.75 154.678 254.544 191.861 251.385 197.603C248.225 203.346 258.169 197.603 258.169 197.603L238.75 154.678Z" fill="black"/>
<path d="M260.745 191.407C260.745 191.407 207.399 193.842 222.96 209.552C238.522 225.261 270.456 210.218 270.456 210.218L260.745 191.407Z" fill="#563438"/>
<path opacity="0.1" d="M253.025 42.0543C253.03 45.6726 252.279 49.2561 250.814 52.5988C250.324 52.6521 249.834 52.6855 249.362 52.7055C248.656 51.2415 249.034 49.5508 249.048 47.9401C249.062 46.3295 248.434 44.4353 246.794 44.0018C243.526 43.1315 241.269 48.9106 238.046 47.8668C235.577 47.0731 236.223 43.5316 234.801 41.4874C233.677 39.8701 231.423 39.4132 229.671 38.3995C225.943 36.2352 226.056 32.7738 224.325 29.499C222.512 26.0676 218.683 27.0814 215.358 29.1055C212.833 30.6462 210.654 32.7104 207.952 33.9376C205.614 35.0047 202.987 35.3915 200.396 35.4482C198.8 35.5067 197.204 35.3472 195.656 34.9747C197.476 28.5033 201.724 22.8788 207.605 19.1502C213.487 15.4217 220.602 13.8435 227.624 14.7101C234.646 15.5766 241.094 18.8287 245.767 23.8599C250.44 28.8911 253.019 35.3579 253.022 42.0543H253.025Z" fill="black"/>
<path d="M215.368 28.2219C212.839 29.7625 210.664 31.8234 207.962 33.0573C205.625 34.121 202.997 34.5079 200.406 34.5646C197.232 34.6312 193.815 34.1044 191.646 31.9368C189.654 29.9359 189.178 26.858 190.021 24.2335C190.864 21.6091 192.884 19.4315 195.257 17.8542C197.63 16.2768 200.384 15.1864 201.957 12.9288C202.789 11.7349 203.191 10.3277 203.883 9.05714C206.094 4.99209 211.066 2.79116 215.872 2.51772C220.678 2.24427 225.442 3.59817 230.019 5.06546C234.596 6.53274 239.209 8.14676 244.04 8.45022C246.191 8.57694 248.427 8.45022 250.422 9.22054C253.106 10.251 254.866 12.7153 256.064 15.2231C257.408 18.0509 258.244 21.1389 258.103 24.2269C257.806 30.8196 253.201 37.289 255.225 43.605C255.761 45.2891 256.766 47.0165 256.23 48.7005C255.447 51.1582 252.094 51.7185 249.382 51.8352C248.677 50.3712 249.054 48.6772 249.068 47.0698C249.082 45.4625 248.455 43.565 246.819 43.1315C243.546 42.2678 241.289 48.0369 238.073 46.9965C235.623 46.1995 236.257 42.6613 234.833 40.6171C233.708 38.9964 231.451 38.5429 229.702 37.5291C225.975 35.3649 226.088 31.9034 224.356 28.6287C222.53 25.1806 218.696 26.1944 215.368 28.2219Z" fill="#110109"/>
<path d="M163.64 155.119L160.949 156.006C160.949 156.006 162.007 171.052 158.481 175.367C154.955 179.682 170.061 190.41 170.061 190.41C170.061 190.41 190.767 190.3 191.353 188.743C191.938 187.186 190.295 160.864 190.295 160.864C190.295 160.864 179.18 156.769 180.115 150.243C180.115 150.243 176.722 165.62 171.694 164.956C166.665 164.293 160.956 160.321 163.64 155.119Z" fill="#E8F5FF"/>
<path opacity="0.1" d="M172.614 169.612C176.534 169.612 179.712 166.863 179.712 163.472C179.712 160.082 176.534 157.333 172.614 157.333C168.694 157.333 165.516 160.082 165.516 163.472C165.516 166.863 168.694 169.612 172.614 169.612Z" fill="black"/>
<path d="M180.375 155.562C180.375 155.562 178.965 114.852 166.686 123.922C154.408 132.993 154.288 143.841 156.626 147.045C158.964 150.25 166.461 166.293 166.461 166.293C167.633 166.936 168.95 167.307 170.304 167.376C171.657 167.444 173.009 167.208 174.247 166.688C175.486 166.167 176.576 165.377 177.429 164.381C178.282 163.385 178.874 162.212 179.155 160.958L180.375 155.562Z" fill="#563438"/>
<path opacity="0.1" d="M256.971 52.4421C256.913 52.2632 256.803 52.1036 256.653 51.9819C256.047 51.4584 254.742 51.2749 252.774 51.435L252.855 52.3154C255.479 52.102 255.997 52.5955 256.064 52.6789V52.7622L256.146 52.8723C256.473 53.288 256.704 53.7638 256.826 54.2692C256.947 54.7745 256.956 55.2982 256.851 55.8069C256.276 58.5247 252.746 60.6889 252.711 60.7123L252.626 60.7589L252.573 60.8356C251.05 62.9732 242.435 69.0058 240.182 70.5664L239.985 70.353C238.976 71.18 230.111 78.5198 229.631 81.3309C229.321 83.095 227.219 83.7786 226.458 83.9687C225.654 83.3918 223.044 81.4277 221.687 79.2267C220.414 77.1559 225.537 73.1142 225.989 71.5368L225.283 70.8532C225.209 71.1066 218.629 76.9224 220.46 79.8937C221.926 82.278 224.606 84.3189 225.544 84.9925C225.245 87.5669 223.379 102.683 220.512 106.265C216.951 110.717 213.957 133.153 214.289 140.986C214.581 147.946 212.659 161.091 206.242 166.737C205.13 167.757 203.79 168.527 202.32 168.989C200.851 169.451 199.29 169.593 197.754 169.405H197.676H197.599C197.507 169.405 188.198 170.305 180.376 164.069C173.976 158.977 170.351 150.667 169.596 139.362H169.441L169.378 136.071C171.113 135.815 172.676 134.932 173.738 133.609C174.8 132.286 175.278 130.626 175.072 128.976C174.867 127.327 173.993 125.817 172.635 124.764C171.277 123.711 169.54 123.197 167.789 123.329C166.038 123.462 164.41 124.231 163.246 125.475C162.083 126.719 161.474 128.342 161.549 130.001C161.624 131.661 162.376 133.228 163.647 134.374C164.918 135.52 166.609 136.156 168.366 136.147H168.443L168.507 139.419L168.197 139.439C168.972 151.11 172.781 159.744 179.481 165.076C184.573 169.067 191.078 171.08 197.68 170.709C198.148 170.757 198.619 170.782 199.09 170.782C202.116 170.797 205.028 169.689 207.201 167.697C213.961 161.745 216.016 148.116 215.696 140.919C215.343 132.619 218.485 110.99 221.637 107.052C224.726 103.187 226.599 88.1271 226.927 85.2093C228.045 84.9125 230.573 83.9754 231.003 81.541C231.313 79.7803 237.234 74.3547 240.877 71.3501L240.767 71.23C242.728 69.8761 248.825 65.6077 251.847 62.8665C252.785 62.0161 253.716 61.1658 254.689 60.3554C255.86 59.375 257.348 57.8177 257.739 55.9769C257.873 55.3693 257.873 54.7423 257.741 54.1344C257.609 53.5265 257.347 52.9506 256.971 52.4421Z" fill="black"/>
<path d="M225.424 84.7824C225.276 84.6857 221.763 82.308 220.004 79.4468C218.177 76.4756 224.757 70.6631 224.828 70.4097L225.533 71.0933C225.085 72.6673 219.962 76.7123 221.235 78.7799C222.839 81.391 226.217 83.6753 226.252 83.6986L225.424 84.7824Z" fill="#353146"/>
<path d="M239.724 71.2134L239.174 70.4964C239.287 70.4197 250.363 62.8432 252.108 60.3922L252.165 60.3188L252.246 60.2688C252.281 60.2454 255.811 58.0845 256.386 55.3634C256.492 54.8553 256.484 54.3319 256.362 53.8269C256.241 53.322 256.008 52.8468 255.68 52.4321L255.599 52.3188V52.2387C255.529 52.152 255.01 51.6618 252.387 51.8752L252.306 50.9915C254.277 50.8315 255.578 51.0149 256.185 51.5384C256.336 51.6613 256.447 51.822 256.505 52.002C256.887 52.509 257.154 53.0845 257.291 53.693C257.428 54.3015 257.432 54.9302 257.302 55.5401C256.911 57.3842 255.426 58.9415 254.252 59.9186C253.282 60.729 252.348 61.586 251.414 62.4297C247.87 65.641 240.112 70.9499 239.724 71.2134Z" fill="#E8F5FF"/>
<path d="M168.923 134.91L167.988 134.926L168.092 140.297L169.027 140.281L168.923 134.91Z" fill="#E8F5FF"/>
<path d="M167.911 135.724C171.68 135.724 174.735 132.835 174.735 129.271C174.735 125.707 171.68 122.818 167.911 122.818C164.143 122.818 161.088 125.707 161.088 129.271C161.088 132.835 164.143 135.724 167.911 135.724Z" fill="#6C63FF"/>
<path d="M167.911 134.63C171.041 134.63 173.578 132.231 173.578 129.271C173.578 126.312 171.041 123.912 167.911 123.912C164.781 123.912 162.244 126.312 162.244 129.271C162.244 132.231 164.781 134.63 167.911 134.63Z" fill="#E8F5FF"/>
<path d="M198.646 170.352C198.175 170.353 197.704 170.329 197.235 170.282C190.634 170.649 184.13 168.637 179.036 164.649C172.336 159.314 168.535 150.69 167.752 139.009L169.162 138.925C169.917 150.23 173.542 158.544 179.946 163.632C187.767 169.852 197.073 168.968 197.165 168.968H197.242H197.32C198.856 169.155 200.417 169.013 201.888 168.551C203.358 168.089 204.699 167.32 205.811 166.3C212.225 160.654 214.147 147.509 213.855 140.549C213.502 132.709 216.496 110.273 220.061 105.825C223.182 101.926 225.118 84.3556 225.139 84.1789L225.192 83.6786L225.713 83.5919C225.745 83.5919 228.792 83.045 229.173 80.8908C229.666 78.083 238.517 70.7432 239.522 69.9128L240.443 70.9133C236.786 73.9145 230.865 79.3435 230.569 81.1076C230.139 83.5486 227.611 84.4823 226.496 84.7758C226.144 87.697 224.285 102.753 221.207 106.618C218.054 110.557 214.912 132.186 215.265 140.486C215.568 147.682 213.534 161.315 206.774 167.264C204.597 169.261 201.678 170.37 198.646 170.352Z" fill="#353146"/>
<g opacity="0.1">
<path d="M256.029 34.1711C256.608 32.1502 257.306 30.116 257.792 28.0685C257.211 30.126 256.509 32.1502 256.029 34.1711Z" fill="black"/>
<path d="M250.13 50.0511C249.424 48.5871 249.802 46.8931 249.816 45.2857C249.83 43.6784 249.202 41.7976 247.566 41.3474C244.294 40.4837 242.037 46.2561 238.821 45.2123C236.352 44.4153 237.005 40.8772 235.58 38.833C234.455 37.2123 232.202 36.7588 230.453 35.745C226.722 33.5808 226.835 30.1193 225.107 26.8446C223.291 23.4098 219.465 24.4236 216.136 26.4511C213.608 27.9918 211.432 30.056 208.731 31.2865C206.393 32.3503 203.766 32.7371 201.174 32.7938C198.018 32.8638 194.584 32.3336 192.415 30.166C190.743 28.4986 190.14 26.0543 190.486 23.7633C190.426 23.92 190.373 24.0768 190.32 24.2335C189.474 26.8579 189.968 29.9426 191.946 31.9367C194.115 34.1043 197.549 34.6312 200.705 34.5645C203.301 34.5078 205.924 34.121 208.266 33.0572C210.974 31.8234 213.149 29.7625 215.671 28.2218C219 26.1943 222.829 25.1806 224.642 28.6154C226.369 31.8901 226.26 35.3515 229.987 37.5158C231.751 38.5162 233.99 38.9831 235.118 40.6037C236.529 42.6546 235.905 46.1861 238.359 46.9831C241.571 48.0235 243.828 42.2544 247.1 43.1181C248.737 43.5516 249.368 45.4524 249.35 47.0565C249.333 48.6605 248.966 50.3578 249.664 51.8218C252.376 51.7051 255.729 51.1549 256.516 48.6871C256.624 48.333 256.674 47.9652 256.664 47.5967C255.518 49.4675 252.57 49.9477 250.13 50.0511Z" fill="black"/>
</g>
<path opacity="0.1" d="M313.86 132.219L317.954 136.314C317.954 136.314 321.23 158.88 322.867 160.991C324.503 163.102 328.368 171.499 324.739 177.805C324.739 177.805 323.568 181.236 324.27 182.674C324.972 184.111 319.009 191.304 319.009 191.304C319.009 191.304 311.17 197.94 309.53 198.937C307.89 199.934 299.237 207.898 296.314 208.008C293.39 208.118 292.435 211.549 292.435 211.549L275.939 212.103C275.939 212.103 266.827 211.653 264.845 212.87C264.845 212.87 265.903 199.704 255.723 191.074L268.706 186.649C268.706 186.649 273.622 184.648 275.142 182.557C276.098 181.275 277.454 180.308 279.021 179.793C279.021 179.793 282.646 177.358 282.762 176.031C282.879 174.704 287.195 173.076 287.195 173.076L284.751 153.351L286.038 120.604C286.038 120.604 290.132 93.166 298.789 94.7167C307.446 96.2673 313.86 132.219 313.86 132.219Z" fill="black"/>
<path d="M315.271 132.219L319.365 136.314C319.365 136.314 322.641 158.88 324.277 160.991C325.913 163.102 329.778 171.499 326.149 177.805C326.149 177.805 324.982 181.236 325.684 182.674C326.385 184.111 320.419 191.304 320.419 191.304C320.419 191.304 312.58 197.94 310.94 198.937C309.301 199.934 300.647 207.898 297.724 208.008C294.801 208.118 293.845 211.549 293.845 211.549L277.349 212.103C277.349 212.103 268.23 211.653 266.255 212.87C266.255 212.87 267.313 199.704 257.133 191.074L270.117 186.649C270.117 186.649 275.032 184.648 276.552 182.557C277.508 181.275 278.865 180.308 280.431 179.793C280.431 179.793 284.056 177.358 284.172 176.031C284.289 174.704 288.605 173.076 288.605 173.076L286.161 153.351L287.448 120.604C287.448 120.604 291.542 93.166 300.199 94.7167C308.856 96.2673 315.271 132.219 315.271 132.219Z" fill="#E8F5FF"/>
<path opacity="0.1" d="M300.051 165.3C300.051 165.3 312.1 162.298 315.26 165.967C318.419 169.635 300.051 165.3 300.051 165.3Z" fill="black"/>
<path opacity="0.1" d="M297.244 170.332C301.338 173.043 313.973 173.153 313.973 173.153L297.244 170.332Z" fill="black"/>
<path opacity="0.1" d="M303.443 183.884C303.796 183.994 312.129 192.405 315.627 189.86C319.125 187.316 303.443 183.884 303.443 183.884Z" fill="black"/>
<path opacity="0.1" d="M191.223 113.301C191.223 113.301 193.67 129.235 192.464 135.724C191.258 142.213 195.659 150.253 195.659 150.253L191.223 113.301Z" fill="black"/>
<path d="M137.045 119.781C134.224 121.871 132.165 126.82 130.673 132.259C128.071 141.746 127.221 152.748 127.221 152.748C127.221 152.748 104.759 147.879 106.395 145.668C107.424 144.277 106.042 133.8 104.889 126.203C104.201 121.715 103.588 118.23 103.588 118.23C103.588 118.23 144.768 114.025 137.045 119.781Z" fill="#A96C71"/>
<path opacity="0.1" d="M137.045 119.337C134.224 121.431 132.165 126.377 130.673 131.816C126.198 133.101 121.438 133.217 116.899 132.151C112.359 131.085 108.209 128.878 104.889 125.763C104.201 121.271 103.588 117.786 103.588 117.786C103.588 117.786 144.768 113.585 137.045 119.337Z" fill="black"/>
<path d="M149.12 107.419C149.122 113.219 146.954 118.833 143.001 123.267C139.047 127.701 133.562 130.67 127.516 131.647C121.47 132.624 115.254 131.548 109.967 128.607C104.68 125.667 100.664 121.053 98.6285 115.582C96.5932 110.11 96.6703 104.134 98.8463 98.7111C101.022 93.2882 105.157 88.7681 110.518 85.9508C115.879 83.1335 122.121 82.2006 128.14 83.3172C134.158 84.4339 139.565 87.5281 143.403 92.0522C147.102 96.4101 149.118 101.831 149.12 107.419Z" fill="#A96C71"/>
<path opacity="0.1" d="M169.6 261.003H162.194L161.57 248.635L160.918 235.833C160.918 235.833 162.6 235.596 165.28 235.242L166.363 235.106H166.451C167.036 237.703 167.614 240.371 168.172 243.036C169.099 247.766 169.582 252.564 169.614 257.375C169.614 257.709 169.614 258.042 169.614 258.356C169.635 259.246 169.614 260.136 169.6 261.003Z" fill="black"/>
<path d="M168.179 261.003H75.3105C75.7125 260.14 75.9805 259.616 75.9805 259.616C75.9805 259.616 83.4104 228.876 87.1871 215.871C87.1882 215.86 87.1882 215.849 87.1871 215.838C87.6589 214.071 88.2286 212.329 88.8938 210.619C88.9368 210.502 88.9923 210.391 89.0595 210.285C90.9284 207.411 93.2699 204.313 89.994 199.888C86.7181 195.462 87.8782 175.991 87.8782 175.991C87.8782 175.991 91.8559 159.394 96.0662 150.543C96.7052 149.172 97.6121 147.928 98.7392 146.875C99.1056 146.536 99.4968 146.222 99.9099 145.935C100.224 145.712 100.551 145.506 100.89 145.318L100.957 145.278C102.726 144.33 104.69 143.753 106.716 143.587C108.155 143.445 109.607 143.483 111.035 143.7C117.862 144.648 123.328 146.232 127.672 148.036C139.447 152.928 143.012 159.484 143.082 159.621L143.11 159.677C143.583 160.721 150.494 175.981 152.984 183.1C153.629 184.955 153.982 186.258 153.841 186.615C153.136 188.383 159.222 210.509 159.222 210.509C159.222 210.509 162.043 221.18 164.864 233.688C164.987 234.209 165.104 234.729 165.217 235.256C165.721 237.527 166.222 239.841 166.705 242.152C167.641 246.915 168.123 251.747 168.147 256.591C168.199 258.101 168.209 259.572 168.179 261.003Z" fill="#FF748E"/>
<path opacity="0.1" d="M106.162 135.977C106.162 135.977 99.7552 133.643 99.8327 137.185C99.9103 140.726 101.395 142.42 100.926 142.937C100.457 143.454 101.159 146.552 101.159 146.552C101.159 146.552 109.816 146.552 113.793 148.246C117.771 149.94 132.433 153.335 134.306 154.368C136.178 155.402 143.121 160.037 143.121 160.037L143.746 151.26C143.746 151.26 136.57 145.655 124.795 142.78C113.021 139.906 106.162 135.977 106.162 135.977Z" fill="black"/>
<path d="M106.162 135.534C106.162 135.534 99.7552 133.199 99.8327 136.741C99.9103 140.282 101.395 141.976 100.926 142.493C100.457 143.01 101.159 146.108 101.159 146.108C101.159 146.108 109.816 146.108 113.793 147.806C117.771 149.503 132.433 152.894 134.306 153.925C136.178 154.955 143.121 159.594 143.121 159.594L143.753 150.844C143.753 150.844 136.577 145.238 124.802 142.363C113.028 139.489 106.162 135.534 106.162 135.534Z" fill="#FF748E"/>
<path opacity="0.1" d="M125.504 156.656C125.504 156.656 137.747 169.191 137.123 172.663C136.499 176.134 125.504 156.656 125.504 156.656Z" fill="black"/>
<path opacity="0.1" d="M105.615 201.938C105.615 201.938 96.6407 209.758 93.996 210.202C91.3513 210.645 96.0236 212.119 99.0633 210.942C102.103 209.765 108.584 206.667 108.584 206.667L105.615 201.938Z" fill="black"/>
<path d="M171.825 261.003H150.896C147.97 258.602 145.202 256.378 143.438 255.041C140.617 252.9 138.583 249.749 137.285 247.214C136.992 246.637 136.738 246.097 136.523 245.607C136.138 244.762 135.799 243.9 135.508 243.023L151.006 234.319C151.862 235.008 152.667 235.752 153.414 236.546L153.601 236.75C154.462 237.71 155.22 238.801 155.287 239.694C155.364 240.735 158.425 244.76 161.553 248.625C164.727 252.557 167.978 256.315 168.193 256.568C168.193 256.568 168.729 257.259 169.603 258.319C170.221 259.086 170.982 260.006 171.825 261.003Z" fill="#A96C71"/>
<path opacity="0.1" d="M143.404 92.0521C142.66 93.6395 141.993 95.2868 141.894 97.0542C141.616 102.156 142.067 113.565 136.094 116.126C133.135 117.386 129.969 114.618 126.724 114.552C124.39 114.505 122.25 115.906 120.825 117.656C119.4 119.407 118.515 121.485 117.482 123.465C116.542 125.263 115.458 126.991 114.241 128.634C113.878 129.137 113.477 129.615 113.042 130.065C109.4 128.611 106.156 126.391 103.559 123.572C100.962 120.754 99.0787 117.412 98.0539 113.801C97.0291 110.19 96.8894 106.405 97.6454 102.736C98.4015 99.0661 100.033 95.6081 102.417 92.6251C104.8 89.6422 107.872 87.2132 111.398 85.523C114.925 83.8329 118.813 82.9263 122.766 82.8723C126.719 82.8183 130.632 83.6184 134.209 85.2115C137.786 86.8047 140.93 89.1489 143.404 92.0655V92.0521Z" fill="black"/>
<path d="M141.425 96.1539C141.143 101.256 141.598 112.664 135.621 115.222C132.662 116.482 129.495 113.718 126.251 113.651C123.917 113.601 121.78 115.005 120.352 116.753C118.924 118.5 118.046 120.581 117.009 122.565C116.068 124.363 114.985 126.091 113.768 127.734C113.042 128.708 112.238 129.685 111.12 130.232C109.173 131.192 106.814 130.652 104.727 130.035C102.019 129.228 99.3504 128.319 96.7221 127.307C96.7825 126.932 96.8131 126.553 96.8138 126.173C96.7362 126.313 96.6516 126.443 96.567 126.583L96.4012 126.857C96.1015 127.357 95.8088 127.857 95.5408 128.371C95.4386 128.568 95.3398 128.771 95.2517 128.974C94.897 129.731 94.6743 130.538 94.5923 131.362C94.4124 133.586 95.5726 135.697 96.6022 137.698C100.562 145.438 103.009 154.489 100.03 162.609C98.7392 166.14 96.5035 169.278 94.8708 172.69C92.0168 178.732 91.1767 185.453 92.4624 191.958C93.277 195.999 94.9096 200.001 94.5076 204.099C93.8024 211.152 87.3704 216.401 80.9279 220.009C77.4475 221.95 73.1877 223.678 69.4922 222.144C71.8477 219.543 72.4543 215.944 72.9621 212.55C74.3514 203.29 75.7443 194.026 77.1407 184.758C77.6979 181.07 78.2538 177.381 78.8086 173.693C79.8453 166.764 80.8962 159.757 80.2474 152.784C79.7748 147.646 78.4419 142.19 80.7974 137.538C82.0422 135.074 84.2603 133.033 84.9514 130.378C85.5191 128.221 84.9902 125.926 85.364 123.729C85.5686 122.729 85.9149 121.76 86.3937 120.848C87.0033 119.61 87.799 118.462 88.7563 117.44C87.8112 117.179 86.9297 116.823 86.3937 116.076C87.91 115.142 88.1392 113.038 87.4515 111.457C86.7639 109.876 85.3887 108.673 84.1509 107.425C82.9132 106.178 81.7213 104.724 81.5662 103.023C81.2664 99.7855 84.6869 97.2777 85.2899 94.0831C85.9 90.8317 83.488 87.6704 83.6819 84.379C83.9076 80.4006 87.7724 77.5094 91.5879 75.832C97.3455 73.3115 103.706 72.276 110.023 72.8308C115.165 73.291 120.14 74.7949 125.267 75.3785C128.36 75.712 131.495 75.7453 134.566 76.2589C137.638 76.7724 140.716 77.8562 142.878 79.9871C148.576 85.6061 141.749 90.2314 141.425 96.1539Z" fill="#563C2F"/>
<path opacity="0.1" d="M136.657 247.218C134.859 246.481 131.586 246.921 125.969 245.303C120.351 243.686 119.269 236.376 119.269 236.376V236.353C119.202 236.186 118.68 235.099 115.147 231.291C111.243 227.086 102.805 205.847 102.805 205.847C102.805 205.847 95.3219 198.247 95.5581 195.446C95.7944 192.645 94.2287 185.191 94.3839 176.855C94.539 168.518 111.229 162.989 111.229 162.989C143.364 157.603 135.797 192.638 134.94 195.292C134.083 197.947 138.529 205.116 138.529 205.116C137.902 208.238 141.104 213.07 141.104 213.07C141.104 213.07 141.879 217.345 142.038 218.969C142.047 219.044 142.065 219.118 142.091 219.189C142.606 220.72 146.802 222.107 148.509 222.951C150.304 223.838 156.076 231.581 156.076 231.581C157.321 237.267 138.448 247.965 136.657 247.218Z" fill="black"/>
<path d="M137.593 245.884C135.798 245.143 132.522 245.587 126.908 243.966C121.294 242.345 120.208 235.042 120.208 235.042V235.019C120.145 234.849 119.619 233.765 116.086 229.957C112.183 225.752 103.744 204.509 103.744 204.509C103.744 204.509 96.2614 196.913 96.4941 194.112C96.7268 191.311 95.1682 183.857 95.3234 175.527C95.4785 167.197 112.158 161.671 112.158 161.671C144.293 156.286 136.725 191.321 135.869 193.975C135.012 196.629 139.458 203.799 139.458 203.799C138.831 206.92 142.033 211.753 142.033 211.753C142.033 211.753 142.808 216.028 142.97 217.652C142.976 217.727 142.993 217.801 143.02 217.872C143.535 219.402 147.731 220.79 149.441 221.633C151.233 222.517 157.009 230.264 157.009 230.264C158.26 235.939 139.388 246.637 137.593 245.884Z" fill="#FF748E"/>
<path opacity="0.1" d="M112.791 179.962C112.791 179.962 126.829 193.968 130.493 193.968C134.157 193.968 112.791 179.962 112.791 179.962Z" fill="black"/>
<path d="M137.592 245.884C135.797 245.143 132.521 245.587 126.907 243.966C121.293 242.345 120.207 235.042 120.207 235.042V235.019C123.927 232.685 133.349 226.092 137.063 223.681C139.676 221.99 141.809 219.506 143.057 217.858C143.572 219.389 147.768 220.776 149.479 221.62C151.27 222.504 157.046 230.25 157.046 230.25C158.259 235.939 139.386 246.637 137.592 245.884Z" fill="#FF748E"/>
<g opacity="0.1">
<path d="M86.4141 116.112C86.4317 116.139 86.4564 116.162 86.4775 116.189C86.5833 116.062 86.6926 115.936 86.8055 115.816C86.6853 115.926 86.5542 116.025 86.4141 116.112Z" fill="black"/>
<path d="M94.5958 131.399C94.7439 129.548 95.7912 127.917 96.7715 126.29C96.1297 126.057 95.4879 125.82 94.8532 125.573C94.9137 125.199 94.9443 124.821 94.9449 124.443C93.954 126.11 92.875 127.751 92.7233 129.628C92.5435 131.856 93.7036 133.963 94.7333 135.964C98.6968 143.701 101.141 152.751 98.1609 160.875C96.8667 164.403 94.6346 167.544 93.0019 170.955C90.1489 176.997 89.31 183.717 90.597 190.22C91.4045 194.265 93.0407 198.264 92.6387 202.362C91.9334 209.415 85.505 214.664 79.059 218.269C76.4249 219.743 73.3464 221.093 70.402 220.997C70.1294 221.411 69.8254 221.807 69.4922 222.18C73.1913 223.724 77.4475 221.987 80.9279 220.039C87.3775 216.438 93.82 211.202 94.5253 204.136C94.9273 200.038 93.2911 196.039 92.48 191.994C91.1927 185.491 92.029 178.772 94.8779 172.73C96.5 169.321 98.7568 166.177 100.037 162.649C103.017 154.525 100.569 145.475 96.6093 137.738C95.5831 135.724 94.4159 133.626 94.5958 131.399Z" fill="black"/>
<path d="M142.871 80.0271C142.524 79.6906 142.152 79.3785 141.757 79.0934C146.031 84.3356 139.86 88.7908 139.553 94.4332C139.278 99.5353 139.729 110.947 133.752 113.501C130.797 114.765 127.627 111.997 124.386 111.931C122.048 111.884 119.911 113.288 118.483 115.035C117.055 116.783 116.177 118.863 115.144 120.844C114.201 122.642 113.117 124.37 111.9 126.013C111.195 126.99 110.369 127.964 109.248 128.514C107.309 129.471 104.949 128.934 102.858 128.314C100.825 127.709 98.8102 127.042 96.8143 126.313C96.8102 126.661 96.7796 127.007 96.7227 127.35C99.3533 128.364 102.023 129.273 104.731 130.078C106.818 130.698 109.177 131.235 111.12 130.278C112.238 129.728 113.049 128.751 113.772 127.774C114.99 126.133 116.074 124.406 117.013 122.608C118.05 120.628 118.924 118.543 120.356 116.796C121.787 115.049 123.921 113.648 126.255 113.695C129.499 113.761 132.67 116.529 135.625 115.265C141.602 112.711 141.147 101.299 141.425 96.1973C141.75 90.2648 148.577 85.6428 142.871 80.0271Z" fill="black"/>
</g>
<path opacity="0.1" d="M96.4041 126.86C96.1043 127.36 95.8117 127.861 95.5437 128.374C95.4414 128.571 95.3427 128.774 95.2545 128.978C93.4067 127.217 88.9072 123.032 86.3965 121.735C87.0069 120.497 87.8026 119.349 88.7591 118.327C88.7591 118.327 94.7432 121.318 96.4041 126.86Z" fill="black"/>
<path d="M96.5698 126.587C95.184 120.654 88.7591 117.443 88.7591 117.443C87.8019 118.465 87.0061 119.613 86.3965 120.851C89.0447 122.222 93.9251 126.817 95.5437 128.374L96.5698 126.587Z" fill="#FF748E"/>
</g>
<defs>
<linearGradient id="paint0_linear_121_731" x1="257.429" y1="31.8168" x2="257.429" y2="25.6875" gradientUnits="userSpaceOnUse">
<stop stop-color="#808080" stop-opacity="0.25"/>
<stop offset="0.54" stop-color="#808080" stop-opacity="0.12"/>
<stop offset="1" stop-color="#808080" stop-opacity="0.1"/>
</linearGradient>
<linearGradient id="paint1_linear_121_731" x1="198.469" y1="261.003" x2="198.469" y2="-3.32034e-05" gradientUnits="userSpaceOnUse">
<stop stop-color="#808080" stop-opacity="0.25"/>
<stop offset="0.54" stop-color="#808080" stop-opacity="0.12"/>
<stop offset="1" stop-color="#808080" stop-opacity="0.1"/>
</linearGradient>
<clipPath id="clip0_121_731">
<rect width="383" height="261" fill="white"/>
</clipPath>
</defs>
</svg>
