<svg width="32" height="32" viewBox="0 0 32 32" fill="none" xmlns="http://www.w3.org/2000/svg">
<path d="M15.682 8.81903C15.682 12.7849 12.467 15.9999 8.50116 15.9999H1.32031V8.81903C1.32031 4.85316 4.53528 1.63818 8.50116 1.63818C12.467 1.63818 15.682 4.85316 15.682 8.81903Z" fill="#233237"/>
<path d="M15.6816 23.1807C15.6816 19.2149 18.8966 15.9999 22.8625 15.9999H30.0433V23.1807C30.0433 27.1466 26.8284 30.3616 22.8625 30.3616C18.8966 30.3616 15.6816 27.1466 15.6816 23.1807Z" fill="#233237"/>
<path d="M1.32031 23.1807C1.32031 27.1466 4.53528 30.3616 8.50116 30.3616H15.682V23.1807C15.682 19.2149 12.467 15.9999 8.50116 15.9999C4.53528 15.9999 1.32031 19.2149 1.32031 23.1807Z" fill="#233237"/>
<path d="M30.0433 8.81903C30.0433 4.85316 26.8284 1.63818 22.8625 1.63818H15.6816V8.81903C15.6816 12.7849 18.8966 15.9999 22.8625 15.9999C26.8284 15.9999 30.0433 12.7849 30.0433 8.81903Z" fill="#233237"/>
</svg>
