<svg width="189" height="254" viewBox="0 0 189 254" fill="none" xmlns="http://www.w3.org/2000/svg">
<g clip-path="url(#clip0_433_2)">
<path d="M94.1803 236.235L93.8681 229.21C93.8356 229.193 93.8031 229.176 93.7706 229.158C90.4248 227.402 86.5903 230.582 87.6589 234.208C88.6644 237.62 89.34 241.298 91.1805 244.285C92.2679 246.019 93.7315 247.487 95.4629 248.578C97.1942 249.67 99.1488 250.358 101.182 250.591L105.433 253.195C106.016 249.941 105.887 246.6 105.056 243.401C104.224 240.202 102.709 237.221 100.616 234.664C99.4268 233.242 98.0637 231.974 96.5584 230.892C95.5404 233.578 94.1803 236.235 94.1803 236.235Z" fill="#F2F2F2"/>
<path d="M105.551 252.849C105.752 252.848 105.946 252.776 106.098 252.644C106.25 252.511 106.349 252.329 106.378 252.13C106.413 251.88 109.893 226.769 106.768 193.395C103.882 162.573 94.613 118.178 66.8477 81.7181C66.7812 81.6306 66.6981 81.557 66.6032 81.5016C66.5082 81.4462 66.4033 81.4101 66.2944 81.3953C66.1855 81.3805 66.0747 81.3873 65.9685 81.4154C65.8622 81.4435 65.7625 81.4922 65.6751 81.5589C65.5877 81.6256 65.5142 81.7088 65.459 81.8039C65.4037 81.8989 65.3678 82.004 65.3532 82.113C65.3385 82.222 65.3455 82.3328 65.3737 82.4391C65.4019 82.5454 65.4507 82.645 65.5175 82.7324C93.0429 118.878 102.237 162.946 105.103 193.551C108.21 226.73 104.757 251.646 104.722 251.894C104.705 252.013 104.714 252.134 104.748 252.249C104.782 252.364 104.84 252.47 104.919 252.56C104.998 252.651 105.095 252.723 105.204 252.773C105.313 252.823 105.431 252.849 105.551 252.849Z" fill="#3F3D56"/>
<path d="M82.8937 133.147C83.0704 133.147 83.2425 133.091 83.3855 132.987C83.5284 132.884 83.6349 132.737 83.6895 132.569C83.7442 132.401 83.7443 132.22 83.6897 132.052C83.6352 131.884 83.5289 131.737 83.386 131.633C83.2852 131.56 73.1279 124.237 57.9428 118.674C43.9053 113.531 22.5593 108.87 0.583851 115.868C0.479057 115.901 0.381835 115.954 0.297738 116.025C0.213641 116.096 0.144321 116.183 0.0937497 116.28C0.043178 116.378 0.0123503 116.485 0.0030191 116.594C-0.00631215 116.704 0.0060371 116.814 0.0393699 116.919C0.0727026 117.024 0.126356 117.121 0.197268 117.205C0.268179 117.289 0.354952 117.358 0.452625 117.409C0.550298 117.459 0.656961 117.49 0.766495 117.499C0.876028 117.508 0.986285 117.496 1.09097 117.462C22.6161 110.608 43.5753 115.193 57.3677 120.245C72.3361 125.729 82.3038 132.915 82.4028 132.987C82.5454 133.091 82.7173 133.147 82.8937 133.147Z" fill="#3F3D56"/>
<path d="M121.164 37.7707C121.177 37.5944 121.134 37.4186 121.041 37.2684C120.948 37.1183 120.809 37.0015 120.646 36.9348C120.482 36.8682 120.302 36.8551 120.13 36.8974C119.959 36.9397 119.805 37.0353 119.691 37.1704C119.611 37.2657 111.579 46.8753 104.94 61.6292C98.8036 75.2682 92.6194 96.2356 98.0127 118.671C98.0645 118.887 98.1999 119.073 98.389 119.189C98.5781 119.305 98.8055 119.341 99.0211 119.289C99.2367 119.237 99.4229 119.101 99.5387 118.912C99.6545 118.723 99.6904 118.495 99.6385 118.28C94.3562 96.304 100.436 75.7172 106.465 62.3162C113.01 47.7729 120.891 38.3427 120.969 38.2491C121.083 38.1143 121.152 37.9467 121.164 37.7707Z" fill="#3F3D56"/>
<path d="M120.032 80.9132C120.738 86.6088 124.682 91.3049 130.418 91.3049C133.172 91.3049 135.814 90.21 137.761 88.2612C139.709 86.3124 140.803 83.6692 140.803 80.9132C140.803 75.174 136.129 71.0521 130.418 70.5215C124.358 69.9585 119.126 73.6008 120.032 80.9132Z" fill="#2F2E41"/>
<path d="M135.229 248.271H139.184L141.066 233.007L135.229 233.008V248.271Z" fill="#FFB6B6"/>
<path d="M135.09 252.399H147.252V252.245C147.252 250.989 146.753 249.784 145.865 248.896C144.978 248.008 143.774 247.509 142.518 247.509L140.296 245.822L136.152 247.509H135.09V252.399Z" fill="#2F2E41"/>
<path d="M119.651 248.271H123.606L125.487 233.007L119.65 233.008L119.651 248.271Z" fill="#FFB6B6"/>
<path d="M119.512 252.399H131.674V252.245C131.674 250.989 131.175 249.784 130.287 248.896C129.399 248.008 128.195 247.509 126.94 247.509L124.718 245.822L120.573 247.509H119.512V252.399Z" fill="#2F2E41"/>
<path d="M148.838 152.672L151.635 162.264L148.341 202.889C148.341 202.889 150.037 205.429 148.838 205.429C147.64 205.429 146.103 205.993 147.072 207.509C148.04 209.026 144.731 214.472 144.731 214.472L140.051 243.399L134.087 243.311C134.087 243.311 131.055 241.621 132.757 239.912C134.458 238.203 135.657 238.203 134.059 236.604C132.461 235.005 132.461 235.487 132.461 234.247C132.461 233.007 130.86 217.854 134.657 212.041L133.513 188.342L130.819 211.588L125.271 242.599L119.527 242.552C119.527 242.552 116.873 239.993 116.878 238.099C116.883 236.205 118.517 236.047 117.301 234.927C116.084 233.806 116.084 216.595 119.679 207.028C119.679 207.028 121.713 201.683 119.674 199.851C117.636 198.019 119.672 195.924 119.672 195.924C119.672 195.924 122.9 194.756 119.669 191.392C116.438 188.027 119.652 164.234 119.652 164.234C119.652 164.234 116.119 154.629 119.697 150.853C123.274 147.076 148.838 152.672 148.838 152.672Z" fill="#2F2E41"/>
<path d="M99.0379 169.198L104.027 157.135L107.957 159.32L105.583 171.591C105.821 172.369 105.838 173.197 105.631 173.983C105.424 174.769 105.001 175.482 104.412 176.041C103.822 176.601 103.088 176.984 102.293 177.149C101.497 177.314 100.671 177.254 99.9078 176.975C99.1447 176.696 98.4744 176.209 97.9724 175.57C97.4704 174.931 97.1566 174.164 97.0662 173.356C96.9758 172.548 97.1124 171.731 97.4608 170.996C97.8091 170.262 98.3553 169.639 99.0379 169.198Z" fill="#FFB6B6"/>
<path d="M182.75 73.8064L175.16 84.4249L171.826 81.4057L176.917 69.9916C176.861 69.1805 177.033 68.37 177.413 67.6512C177.792 66.9324 178.365 66.3337 179.066 65.9226C179.767 65.5115 180.569 65.3042 181.381 65.3241C182.193 65.3439 182.984 65.59 183.664 66.0348C184.344 66.4796 184.887 67.1054 185.231 67.8418C185.575 68.5783 185.707 69.3963 185.612 70.2037C185.517 71.0111 185.199 71.7761 184.694 72.4125C184.188 73.049 183.515 73.5317 182.75 73.8064Z" fill="#FFB6B6"/>
<path d="M149.591 153.655C154.515 161.296 129.766 170.994 120.27 167.1C118.607 166.419 112.888 164.167 116.797 161.045C120.707 157.924 116.344 157.485 116.241 155.452C116.172 154.094 117.223 151.113 116.126 151.241C115.03 151.369 113.746 149.49 116.135 148.682C118.523 147.873 116.16 147.136 116.181 146.368C116.41 137.993 122.832 124.671 122.832 124.671L111.259 154.27C111.259 154.27 111.345 159.391 109.869 157.826C108.393 156.261 108.501 161.326 108.501 161.326C108.501 161.326 106.307 162.858 107.568 163.711C108.83 164.564 106.21 167.186 106.21 167.186L100.096 166.749C100.096 166.749 100.191 162.204 101.235 161.199C102.279 160.194 101.767 158.613 101.767 158.613C101.767 158.613 104.485 156.205 102.662 154.25C100.319 151.736 108.863 109.274 111.812 109.695C112.229 107.665 113.199 105.79 114.614 104.276C116.03 102.763 117.836 101.671 119.833 101.121L126.437 99.3019L127.609 94.6466H136.908L138.528 97.7055L145.597 100.898C146.928 99.0176 147.923 97.0367 153.376 96.3945C153.376 96.3945 168.069 83.0185 167.351 81.9741C166.634 80.9296 168.912 78.4844 168.912 78.4844C168.912 78.4844 170.857 77.8474 169.759 77.5074C168.662 77.1673 170.736 76.381 170.736 76.381C170.736 76.381 172.658 75.8758 171.751 75.2106C170.845 74.5454 174.776 74.1084 174.776 74.1084L179.875 78.2718L178.845 80.0205C178.845 80.0205 179.473 82.4018 178.653 81.5325C177.833 80.6631 177.678 83.186 177.678 83.186C177.678 83.186 177.26 85.9486 174.776 86.7809C172.292 87.6132 170.408 95.5205 170.408 95.5205C164.551 103.141 157.638 109.086 149.446 113C152.638 116.667 149.591 153.655 149.591 153.655Z" fill="#6C63FF"/>
<path d="M131.567 91.922C136.653 91.922 140.776 87.7963 140.776 82.7071C140.776 77.6178 136.653 73.4922 131.567 73.4922C126.481 73.4922 122.357 77.6178 122.357 82.7071C122.357 87.7963 126.481 91.922 131.567 91.922Z" fill="#FFB6B6"/>
<path d="M122.03 83.7111C122.322 85.7135 124.028 88.5073 123.628 88.5073C123.229 88.5073 120.389 80.2526 123.229 79.7143C125.289 79.3239 125.749 79.6664 127.675 78.831L127.403 79.0868C128.677 80.0141 130.451 79.4426 131.905 78.839C133.363 78.2395 135.132 77.668 136.41 78.5912C137.213 79.1708 137.553 80.178 138.052 81.0333C138.551 81.8926 139.474 82.7039 140.425 82.4402C141.188 82.2283 141.627 81.373 141.623 80.5816C141.619 79.7903 140.589 79.0375 140.936 78.3274C141.964 76.2234 141.04 74.7892 138.799 73.7991C137.984 73.6752 137.169 73.5486 136.354 73.4194C136.781 72.8276 137.299 72.3069 137.888 71.8766C137.639 71.238 137.209 70.6864 136.65 70.2899C135.999 69.9022 135.192 69.9302 134.437 69.9701C132.752 70.0581 131.067 70.146 129.384 70.2339C128.138 70.2979 126.848 70.3738 125.733 70.9454C124.343 71.6608 123.432 73.0557 122.769 74.4745C121.283 77.664 121.519 80.2299 122.03 83.7111Z" fill="#2F2E41"/>
<path d="M83.7197 253.438L174.294 253.56C174.42 253.56 174.541 253.51 174.63 253.421C174.719 253.332 174.769 253.211 174.769 253.085C174.769 252.958 174.719 252.837 174.63 252.748C174.541 252.659 174.42 252.609 174.294 252.609L83.7197 252.486C83.5936 252.486 83.4726 252.536 83.3834 252.625C83.2942 252.714 83.2441 252.836 83.2441 252.962C83.2441 253.088 83.2942 253.209 83.3834 253.298C83.4726 253.387 83.5936 253.438 83.7197 253.438Z" fill="#CACACA"/>
<path d="M50.9622 211.955C51.1292 210.806 49.9271 209.681 48.2774 209.441C46.6278 209.2 45.1552 209.937 44.9882 211.085C44.8212 212.233 46.0232 213.359 47.6729 213.599C49.3226 213.839 50.7952 213.103 50.9622 211.955Z" fill="#E6E6E6"/>
<path d="M70.6028 210.037C70.7698 208.888 69.5678 207.763 67.9181 207.523C66.2685 207.283 64.7958 208.019 64.6288 209.167C64.4618 210.315 65.6638 211.441 67.3135 211.681C68.9632 211.921 70.4359 211.185 70.6028 210.037Z" fill="#3F3D56"/>
<path d="M45.5832 196.044C45.7501 194.896 44.5482 193.77 42.8985 193.53C41.2488 193.29 39.7761 194.026 39.6092 195.174C39.4422 196.323 40.6442 197.448 42.2938 197.688C43.9435 197.928 45.4162 197.192 45.5832 196.044Z" fill="#FF6584"/>
<path d="M37.0477 189.527C37.0557 188.473 36.468 187.614 35.7351 187.608C35.0022 187.603 34.4016 188.453 34.3936 189.507C34.3857 190.561 34.9734 191.42 35.7063 191.426C36.4392 191.431 37.0398 190.581 37.0477 189.527Z" fill="#E6E6E6"/>
<path d="M34.1532 177.388C34.1611 176.334 33.5735 175.474 32.8406 175.469C32.1077 175.463 31.5071 176.313 31.4991 177.368C31.4911 178.422 32.0788 179.281 32.8117 179.286C33.5446 179.292 34.1452 178.442 34.1532 177.388Z" fill="#3F3D56"/>
<path d="M56.661 198.751C56.6689 197.697 56.0813 196.838 55.3484 196.833C54.6155 196.827 54.0149 197.677 54.0069 198.731C53.9989 199.786 54.5866 200.645 55.3195 200.65C56.0524 200.656 56.653 199.806 56.661 198.751Z" fill="#E6E6E6"/>
<path d="M47.1688 203.493C47.1768 202.439 46.5891 201.58 45.8562 201.574C45.1233 201.569 44.5227 202.419 44.5147 203.473C44.5068 204.527 45.0944 205.386 45.8273 205.392C46.5602 205.397 47.1608 204.547 47.1688 203.493Z" fill="#FF6584"/>
<path d="M60.3817 212.257C60.3896 211.203 59.802 210.344 59.0691 210.339C58.3362 210.333 57.7356 211.183 57.7276 212.237C57.7196 213.291 58.3073 214.15 59.0402 214.156C59.7731 214.162 60.3737 213.312 60.3817 212.257Z" fill="#3F3D56"/>
<path d="M188.039 127.976C188.047 126.922 187.459 126.063 186.726 126.057C185.993 126.052 185.393 126.902 185.385 127.956C185.377 129.01 185.964 129.869 186.697 129.875C187.43 129.88 188.031 129.03 188.039 127.976Z" fill="#E6E6E6"/>
<path d="M185.142 115.837C185.15 114.783 184.562 113.924 183.829 113.919C183.097 113.913 182.496 114.763 182.488 115.817C182.48 116.871 183.068 117.731 183.801 117.736C184.534 117.742 185.134 116.892 185.142 115.837Z" fill="#3F3D56"/>
<path d="M128.853 36.4949C129.019 35.3467 127.818 34.2211 126.168 33.981C124.518 33.7408 123.045 34.477 122.879 35.6252C122.712 36.7735 123.913 37.8991 125.563 38.1392C127.213 38.3794 128.686 37.6432 128.853 36.4949Z" fill="white"/>
<path d="M148.493 34.5775C148.66 33.4292 147.458 32.3037 145.808 32.0635C144.159 31.8233 142.686 32.5595 142.519 33.7078C142.352 34.8561 143.554 35.9816 145.204 36.2218C146.853 36.4619 148.326 35.7258 148.493 34.5775Z" fill="#3F3D56"/>
<path d="M123.474 20.5843C123.641 19.436 122.439 18.3105 120.789 18.0703C119.139 17.8301 117.667 18.5663 117.5 19.7146C117.333 20.8629 118.535 21.9884 120.184 22.2286C121.834 22.4688 123.307 21.7326 123.474 20.5843Z" fill="#FF6584"/>
<path d="M114.94 14.0673C114.948 13.0131 114.36 12.1541 113.627 12.1485C112.894 12.143 112.294 12.993 112.286 14.0472C112.278 15.1014 112.866 15.9605 113.599 15.966C114.331 15.9715 114.932 15.1215 114.94 14.0673Z" fill="#E6E6E6"/>
<path d="M112.045 1.92857C112.053 0.874408 111.466 0.0153379 110.733 0.0097926C110 0.00424729 109.399 0.854326 109.391 1.90849C109.383 2.96266 109.971 3.82173 110.704 3.82727C111.437 3.83282 112.037 2.98274 112.045 1.92857Z" fill="#3F3D56"/>
<path d="M134.551 23.2919C134.559 22.2377 133.972 21.3787 133.239 21.3731C132.506 21.3676 131.905 22.2177 131.897 23.2718C131.889 24.326 132.477 25.1851 133.21 25.1906C133.943 25.1962 134.543 24.3461 134.551 23.2919Z" fill="#E6E6E6"/>
<path d="M125.061 28.0341C125.069 26.9799 124.481 26.1209 123.748 26.1153C123.016 26.1098 122.415 26.9598 122.407 28.014C122.399 29.0682 122.987 29.9272 123.72 29.9328C124.453 29.9383 125.053 29.0883 125.061 28.0341Z" fill="#FF6584"/>
<path d="M138.272 36.7977C138.28 35.7435 137.692 34.8844 136.959 34.8789C136.226 34.8734 135.626 35.7234 135.618 36.7776C135.61 37.8317 136.198 38.6908 136.931 38.6964C137.663 38.7019 138.264 37.8518 138.272 36.7977Z" fill="#3F3D56"/>
</g>
<defs>
<clipPath id="clip0_433_2">
<rect width="189" height="254" fill="white"/>
</clipPath>
</defs>
</svg>
